#Comment line ignore any data following # character 
#Hierarchical Translation and Rotation (.htr) file 
[Header]	
#Header keywords are followed by a single value 
FileType HTR		#Single word string
DataType HTRS		#Translation followed by rotation and scale data
FileVersion 1		#integer
NumSegments 64		#integer
NumFrames 3		#integer
DataFrameRate 30		#integer, data frame rate in this file
EulerRotationOrder ZYX
CalibrationUnits mm
RotationUnits Degrees
GlobalAxisofGravity Y
BoneLengthAxis Y
ScaleFactor 1.00
[SegmentNames&Hierarchy]
#CHILD	PARENT
Pinger_Root GLOBAL
Pelvis Pinger_Root
L_Hip Pelvis
R_Hip Pelvis
Rear_Leg01 Pelvis
Spine1 Pelvis
L_Leg01 L_Hip
L_Leg02 L_Leg01
L_Leg03 L_Leg02
L_Foot L_Leg03
L_Toe1_01 L_Foot
L_Toe2_01 L_Foot
L_Toe3_01 L_Foot
planeAlignerLeft L_Foot
L_Toe1_02 L_Toe1_01
L_Toe1_03 L_Toe1_02
L_Toe2_02 L_Toe2_01
L_Toe2_03 L_Toe2_02
L_Toe3_02 L_Toe3_01
L_Toe3_03 L_Toe3_02
planeLockWeightLeft planeAlignerLeft
R_Leg01 R_Hip
R_Leg02 R_Leg01
R_Leg03 R_Leg02
R_Foot R_Leg03
planeAlignerRight R_Foot
R_Toe1_01 R_Foot
R_Toe2_01 R_Foot
R_Toe3_01 R_Foot
planeLockWeightRight planeAlignerRight
R_Toe1_02 R_Toe1_01
R_Toe1_03 R_Toe1_02
R_Toe2_02 R_Toe2_01
R_Toe2_03 R_Toe2_02
R_Toe3_02 R_Toe3_01
R_Toe3_03 R_Toe3_02
Rear_Leg02 Rear_Leg01
Rear_Leg03 Rear_Leg02
Rear_Leg04 Rear_Leg03
Rear_Foot Rear_Leg04
planeAlignerCenter Rear_Foot
Rear_Toe1_01 Rear_Foot
Rear_Toe2_01 Rear_Foot
Rear_Toe3_01 Rear_Foot
planeLockWeightCenter planeAlignerCenter
Rear_Toe1_02 Rear_Toe1_01
Rear_Toe1_03 Rear_Toe1_02
Rear_Toe2_02 Rear_Toe2_01
Rear_Toe2_03 Rear_Toe2_02
Rear_Toe3_02 Rear_Toe3_01
Rear_Toe3_03 Rear_Toe3_02
Back_Bone Spine1
Head Spine1
Motor_Bone Back_Bone
Ping_Mechanism Back_Bone
BN_LookIK Head
bottomMouth Head
L_Mouth01 Head
L_mouthFront Head
mouthGun Head
R_Mouth01 Head
R_mouthFront Head
TopMouth Head
weapon_bone Head
[BasePosition]
#SegmentName Tx, Ty, Tz, Rx, Ry, Rz, BoneLength
Pinger_Root 0.000000 0.000000 0.000000 -90.000000 0.000000 0.000000 10.000000 
Pelvis 0.000000 0.000000 0.000000 0.000000 0.000000 0.000000 10.000000 
L_Hip 0.000000 0.000000 0.000000 0.000000 0.000000 0.000000 10.000000 
R_Hip 0.000000 0.000000 0.000000 0.000000 0.000000 0.000000 10.000000 
Rear_Leg01 0.000000 0.000000 0.000000 0.000000 0.000000 0.000000 10.000000 
Spine1 0.000000 0.000000 0.000000 0.000000 0.000000 0.000000 10.000000 
L_Leg01 0.000000 0.000000 0.000000 0.000000 0.000000 0.000000 10.000000 
L_Leg02 0.000000 0.000000 0.000000 0.000000 0.000000 0.000000 10.000000 
L_Leg03 0.000000 0.000000 0.000000 0.000000 0.000000 0.000000 10.000000 
L_Foot 0.000000 0.000000 0.000000 0.000000 0.000000 0.000000 10.000000 
L_Toe1_01 0.000000 0.000000 0.000000 0.000000 0.000000 0.000000 10.000000 
L_Toe2_01 0.000000 0.000000 0.000000 0.000000 0.000000 0.000000 10.000000 
L_Toe3_01 0.000000 0.000000 0.000000 0.000000 0.000000 0.000000 10.000000 
planeAlignerLeft 0.000000 0.000000 0.000000 0.000000 0.000000 0.000000 10.000000 
L_Toe1_02 0.000000 0.000000 0.000000 0.000000 0.000000 0.000000 10.000000 
L_Toe1_03 0.000000 0.000000 0.000000 0.000000 0.000000 0.000000 10.000000 
L_Toe2_02 0.000000 0.000000 0.000000 0.000000 0.000000 0.000000 10.000000 
L_Toe2_03 0.000000 0.000000 0.000000 0.000000 0.000000 0.000000 10.000000 
L_Toe3_02 0.000000 0.000000 0.000000 0.000000 0.000000 0.000000 10.000000 
L_Toe3_03 0.000000 0.000000 0.000000 0.000000 0.000000 0.000000 10.000000 
planeLockWeightLeft 0.000000 0.000000 0.000000 0.000000 0.000000 0.000000 10.000000 
R_Leg01 0.000000 0.000000 0.000000 0.000000 0.000000 0.000000 10.000000 
R_Leg02 0.000000 0.000000 0.000000 0.000000 0.000000 0.000000 10.000000 
R_Leg03 0.000000 0.000000 0.000000 0.000000 0.000000 0.000000 10.000000 
R_Foot 0.000000 0.000000 0.000000 0.000000 0.000000 0.000000 10.000000 
planeAlignerRight 0.000000 0.000000 0.000000 0.000000 0.000000 0.000000 10.000000 
R_Toe1_01 0.000000 0.000000 0.000000 0.000000 0.000000 0.000000 10.000000 
R_Toe2_01 0.000000 0.000000 0.000000 0.000000 0.000000 0.000000 10.000000 
R_Toe3_01 0.000000 0.000000 0.000000 0.000000 0.000000 0.000000 10.000000 
planeLockWeightRight 0.000000 0.000000 0.000000 0.000000 0.000000 0.000000 10.000000 
R_Toe1_02 0.000000 0.000000 0.000000 0.000000 0.000000 0.000000 10.000000 
R_Toe1_03 0.000000 0.000000 0.000000 0.000000 0.000000 0.000000 10.000000 
R_Toe2_02 0.000000 0.000000 0.000000 0.000000 0.000000 0.000000 10.000000 
R_Toe2_03 0.000000 0.000000 0.000000 0.000000 0.000000 0.000000 10.000000 
R_Toe3_02 0.000000 0.000000 0.000000 0.000000 0.000000 0.000000 10.000000 
R_Toe3_03 0.000000 0.000000 0.000000 0.000000 0.000000 0.000000 10.000000 
Rear_Leg02 0.000000 0.000000 0.000000 0.000000 0.000000 0.000000 10.000000 
Rear_Leg03 0.000000 0.000000 0.000000 0.000000 0.000000 0.000000 10.000000 
Rear_Leg04 0.000000 0.000000 0.000000 0.000000 0.000000 0.000000 10.000000 
Rear_Foot 0.000000 0.000000 0.000000 0.000000 0.000000 0.000000 10.000000 
planeAlignerCenter 0.000000 0.000000 0.000000 0.000000 0.000000 0.000000 10.000000 
Rear_Toe1_01 0.000000 0.000000 0.000000 0.000000 0.000000 0.000000 10.000000 
Rear_Toe2_01 0.000000 0.000000 0.000000 0.000000 0.000000 0.000000 10.000000 
Rear_Toe3_01 0.000000 0.000000 0.000000 0.000000 0.000000 0.000000 10.000000 
planeLockWeightCenter 0.000000 0.000000 0.000000 0.000000 0.000000 0.000000 10.000000 
Rear_Toe1_02 0.000000 0.000000 0.000000 0.000000 0.000000 0.000000 10.000000 
Rear_Toe1_03 0.000000 0.000000 0.000000 0.000000 0.000000 0.000000 10.000000 
Rear_Toe2_02 0.000000 0.000000 0.000000 0.000000 0.000000 0.000000 10.000000 
Rear_Toe2_03 0.000000 0.000000 0.000000 0.000000 0.000000 0.000000 10.000000 
Rear_Toe3_02 0.000000 0.000000 0.000000 0.000000 0.000000 0.000000 10.000000 
Rear_Toe3_03 0.000000 0.000000 0.000000 0.000000 0.000000 0.000000 10.000000 
Back_Bone 0.000000 0.000000 0.000000 0.000000 0.000000 0.000000 10.000000 
Head 0.000000 0.000000 0.000000 0.000000 0.000000 0.000000 10.000000 
Motor_Bone 0.000000 0.000000 0.000000 0.000000 0.000000 0.000000 10.000000 
Ping_Mechanism 0.000000 0.000000 0.000000 0.000000 0.000000 0.000000 10.000000 
BN_LookIK 0.000000 0.000000 0.000000 0.000000 0.000000 0.000000 10.000000 
bottomMouth 0.000000 0.000000 0.000000 0.000000 0.000000 0.000000 10.000000 
L_Mouth01 0.000000 0.000000 0.000000 0.000000 0.000000 0.000000 10.000000 
L_mouthFront 0.000000 0.000000 0.000000 0.000000 0.000000 0.000000 10.000000 
mouthGun 0.000000 0.000000 0.000000 0.000000 0.000000 0.000000 10.000000 
R_Mouth01 0.000000 0.000000 0.000000 0.000000 0.000000 0.000000 10.000000 
R_mouthFront 0.000000 0.000000 0.000000 0.000000 0.000000 0.000000 10.000000 
TopMouth 0.000000 0.000000 0.000000 0.000000 0.000000 0.000000 10.000000 
weapon_bone 0.000000 0.000000 0.000000 0.000000 0.000000 0.000000 10.000000 
#Beginning of Data. Separated by tabs
#Fr	Tx	Ty	Tz	Rx	Ry	Rz	SF
[Pinger_Root]
139 0.000000 0.000000 0.000000 -0.000075 -0.000000 -0.000020 0.000000
140 0.000000 0.000000 0.000000 -0.000075 -0.000000 -0.000020 0.000000
141 0.000000 0.000000 0.000000 -0.000075 -0.000000 -0.000020 0.000000
[Pelvis]
139 -1253.053711 11268.682617 -3581.697754 -92.258667 -61.228413 84.615959 11890.412109
140 -1252.117676 11256.338867 -3596.454102 -92.837067 -61.239014 85.132652 11883.073242
141 -1251.266479 11246.574219 -3618.200195 -93.415771 -61.247059 85.649651 11880.339844
[L_Hip]
139 5.766392 125.831482 872.656799 -178.253326 -81.787758 87.381302 881.701050
140 5.766392 125.831482 872.656799 -178.253311 -81.787758 87.381340 881.701050
141 5.766392 125.831482 872.656799 -178.253311 -81.787758 87.381340 881.701050
[R_Hip]
139 5.765438 125.836372 -872.654907 -1.746676 81.787666 87.381203 881.699829
140 5.765438 125.836372 -872.654907 -1.746690 81.787712 87.381248 881.699829
141 5.765438 125.836372 -872.654907 -1.746690 81.787712 87.381248 881.699829
[Rear_Leg01]
139 -192.298416 -925.602966 -0.001907 152.224243 10.153431 -143.380417 945.367432
140 -192.298416 -925.602966 -0.001907 151.901230 9.867511 -143.478683 945.367432
141 -192.298416 -925.602966 -0.001907 151.578995 9.581051 -143.575226 945.367432
[Spine1]
139 290.604584 5.007505 0.000477 8.551660 -0.956905 -2.738435 290.647736
140 290.604584 5.007505 0.000477 8.706215 -0.603873 -2.668405 290.647736
141 290.604584 5.007505 0.000477 8.798813 -0.417306 -2.469891 290.647736
[L_Leg01]
139 761.932007 -0.002384 -0.069261 36.235920 -55.125412 -15.836411 761.932068
140 761.932007 -0.002384 -0.069261 34.797127 -55.424030 -13.155825 761.932068
141 761.932007 -0.002384 -0.069261 33.298161 -55.930775 -10.180817 761.932068
[L_Leg02]
139 1441.140503 -0.000954 -0.000715 9.325089 2.980108 -170.919281 1441.140503
140 1441.140503 -0.000954 -0.000715 9.569970 3.146693 -173.245728 1441.140503
141 1441.140503 -0.000954 -0.000715 9.857776 3.321595 -176.011185 1441.140503
[L_Leg03]
139 1686.963989 -0.000715 -0.000954 -0.107830 0.064660 139.120300 1686.963989
140 1686.963989 -0.000715 -0.000954 -0.108894 0.065593 139.489105 1686.963989
141 1686.963989 -0.000715 -0.000954 -0.109952 0.066532 139.857910 1686.963989
[L_Foot]
139 3041.570068 -30.715107 11.297464 -16.371088 9.002940 37.654255 3041.746094
140 3041.570068 -30.715107 11.297464 -16.702223 8.696672 38.249321 3041.746094
141 3041.570068 -30.715107 11.297464 -17.036287 8.393821 38.845684 3041.746094
[L_Toe1_01]
139 -188.216690 -224.732346 -21.137953 87.178131 -1.485435 -167.032425 293.899567
140 -188.216690 -224.732346 -21.137953 87.160698 -1.797735 -166.709976 293.899567
141 -188.216690 -224.732346 -21.137953 87.141502 -2.109953 -166.387344 293.899567
[L_Toe2_01]
139 200.746536 -219.926590 148.838394 -81.913353 -17.655973 -31.680403 332.896027
140 200.746536 -219.926590 148.838394 -81.423676 -17.410763 -33.450546 332.896027
141 200.746536 -219.926590 148.838394 -80.915375 -17.093857 -35.328411 332.896027
[L_Toe3_01]
139 188.832520 -219.859131 -191.078659 -98.283432 23.644180 -34.181747 347.140900
140 188.832520 -219.859131 -191.078659 -98.686996 22.522165 -35.695961 347.140900
141 188.832520 -219.859131 -191.078659 -99.099304 21.415306 -37.339783 347.140900
[planeAlignerLeft]
139 0.812531 -811.448792 -0.314951 0.000000 -90.000000 -90.001900 811.449280
140 0.812531 -811.448792 -0.314951 0.000000 -90.000000 -90.001900 811.449280
141 0.812531 -811.448792 -0.314951 0.000000 -90.000000 -90.001900 811.449280
[L_Toe1_02]
139 413.761139 0.000477 0.000000 0.001390 -25.174744 0.001390 413.761139
140 413.761139 0.000477 0.000000 0.001392 -24.914873 0.001392 413.761139
141 413.761139 0.000477 0.000000 0.001394 -24.654993 0.001394 413.761139
[L_Toe1_03]
139 464.317322 0.000358 -0.000089 0.005538 65.517540 0.005538 464.317322
140 464.317322 0.000358 -0.000089 0.005983 67.366455 0.005983 464.317322
141 464.317322 0.000358 -0.000089 0.006506 69.214371 0.006506 464.317322
[L_Toe2_02]
139 342.235809 -0.000477 0.000238 0.004684 -81.125572 0.004684 342.235809
140 342.235809 -0.000477 0.000238 0.004685 -81.017097 0.004685 342.235809
141 342.235809 -0.000477 0.000238 0.004685 -80.908607 0.004685 342.235809
[L_Toe2_03]
139 420.210846 -0.000715 0.000000 179.992889 49.401970 -179.999649 420.210846
140 420.210846 -0.000715 0.000000 179.992661 52.436680 -179.999954 420.210846
141 420.210846 -0.000715 0.000000 179.992355 55.780556 179.999664 420.210846
[L_Toe3_02]
139 329.270111 0.000954 0.000000 0.004676 -84.564194 0.004676 329.270111
140 329.270111 0.000954 0.000000 0.004676 -84.441658 0.004676 329.270111
141 329.270111 0.000954 0.000000 0.004676 -84.319107 0.004676 329.270111
[L_Toe3_03]
139 439.137451 -0.001907 0.000954 179.992828 50.258106 -179.999741 439.137451
140 439.137451 -0.001907 0.000954 179.992645 52.655899 -179.999985 439.137451
141 439.137451 -0.001907 0.000954 179.992432 55.053673 179.999756 439.137451
[planeLockWeightLeft]
139 -0.000954 0.000238 -0.000305 -0.011826 -0.004376 0.005620 0.001029
140 -0.000954 0.000238 -0.000305 -0.011826 -0.004376 0.005620 0.001029
141 -0.000954 0.000238 -0.000305 -0.011826 -0.004376 0.005620 0.001029
[R_Leg01]
139 761.455627 -0.001907 -0.000358 -139.927399 -72.825829 -71.144112 761.455688
140 761.455627 -0.001907 -0.000358 -138.292862 -72.519905 -72.635933 761.455688
141 761.455627 -0.001907 -0.000358 -136.712677 -72.201591 -74.073242 761.455688
[R_Leg02]
139 1441.140625 0.000000 -0.000238 -1.070033 0.384043 166.431030 1441.140625
140 1441.140625 0.000000 -0.000238 -1.076956 0.384399 166.007523 1441.140625
141 1441.140625 0.000000 -0.000238 -1.087947 0.386627 165.301804 1441.140625
[R_Leg03]
139 1686.963989 0.000954 0.001431 -0.056544 0.013187 95.437943 1686.963989
140 1686.963989 0.000954 0.001431 -0.056529 0.013251 95.567116 1686.963989
141 1686.963989 0.000954 0.001431 -0.056514 0.013315 95.696281 1686.963989
[R_Foot]
139 3041.560059 -30.531288 -11.204481 31.562592 -22.385118 98.123734 3041.734131
140 3041.560059 -30.531288 -11.204481 31.540688 -22.406965 97.868881 3041.734131
141 3041.560059 -30.531288 -11.204481 31.769228 -22.411167 97.745438 3041.734131
[planeAlignerRight]
139 -0.635147 -812.270569 -0.364304 0.000000 -89.960434 -90.005180 812.270874
140 -0.635147 -812.270569 -0.364304 0.000000 -89.960434 -90.005180 812.270874
141 -0.635147 -812.270569 -0.364304 0.000000 -89.960434 -90.005180 812.270874
[R_Toe1_01]
139 -188.383347 -224.864899 21.052242 91.324234 1.492848 -175.933975 294.101532
140 -188.383347 -224.864899 21.052242 91.344551 1.517262 -175.833603 294.101532
141 -188.383347 -224.864899 21.052242 91.364906 1.541640 -175.733246 294.101532
[R_Toe2_01]
139 200.637817 -220.002121 -148.787384 -96.115852 15.105872 -29.940193 332.857574
140 200.637817 -220.002121 -148.787384 -96.124130 15.094247 -30.155993 332.857574
141 200.637817 -220.002121 -148.787384 -96.132370 15.082595 -30.371775 332.857574
[R_Toe3_01]
139 188.606735 -220.092957 191.126343 -79.034370 -20.758522 -32.510715 347.192566
140 188.606735 -220.092957 191.126343 -78.998802 -20.678371 -32.701672 347.192566
141 188.606735 -220.092957 191.126343 -78.963554 -20.598114 -32.892487 347.192566
[planeLockWeightRight]
139 -0.000477 0.000000 0.000000 -0.011823 -0.004379 -0.000027 0.000477
140 -0.000477 0.000000 0.000000 -0.011823 -0.004379 -0.000027 0.000477
141 -0.000477 0.000000 0.000000 -0.011823 -0.004379 -0.000027 0.000477
[R_Toe1_02]
139 413.762085 0.000477 -0.000119 0.001425 -20.885660 0.001425 413.762085
140 413.762085 0.000477 -0.000119 0.001425 -20.886047 0.001425 413.762085
141 413.762085 0.000477 -0.000119 0.001425 -20.886435 0.001425 413.762085
[R_Toe1_03]
139 464.317810 0.000000 0.001088 -0.025563 87.234238 -0.022065 464.317810
140 464.317810 0.000000 0.001088 -0.025730 87.253410 -0.022233 464.317810
141 464.317810 0.000000 0.001088 -0.025900 87.272789 -0.022403 464.317810
[R_Toe2_02]
139 342.234741 -0.000954 0.000238 -0.002332 -80.087219 -0.002332 342.234741
140 342.234741 -0.000954 0.000238 -0.002332 -80.059944 -0.002332 342.234741
141 342.234741 -0.000954 0.000238 -0.002332 -80.032578 -0.002332 342.234741
[R_Toe2_03]
139 420.210846 0.000715 -0.000268 -179.995865 61.446720 -179.999481 420.210846
140 420.210846 0.000715 -0.000268 -179.995850 61.678516 -179.999466 420.210846
141 420.210846 0.000715 -0.000268 -179.995834 61.910339 -179.999435 420.210846
[R_Toe3_02]
139 329.270355 -0.000477 -0.000954 0.001175 -83.541237 0.001175 329.270355
140 329.270355 -0.000477 -0.000954 0.001176 -83.515541 0.001176 329.270355
141 329.270355 -0.000477 -0.000954 0.001176 -83.489731 0.001176 329.270355
[R_Toe3_03]
139 439.137939 0.000238 0.001431 -179.999451 61.819183 -179.995834 439.137939
140 439.137939 0.000238 0.001431 -179.999435 62.002716 -179.995834 439.137939
141 439.137939 0.000238 0.001431 -179.999405 62.186291 -179.995819 439.137939
[Rear_Leg02]
139 1162.777710 -0.029802 0.005960 23.669109 -5.142478 -138.304688 1162.777710
140 1162.777710 -0.029802 0.005960 23.730127 -4.380993 -140.263062 1162.777710
141 1162.777710 -0.029802 0.005960 23.764980 -3.617874 -142.218781 1162.777710
[Rear_Leg03]
139 607.192505 -0.013351 -0.073195 0.009872 -0.006221 80.796074 607.192505
140 607.192505 -0.013351 -0.073195 0.009865 -0.006231 80.909332 607.192505
141 607.192505 -0.013351 -0.073195 0.009859 -0.006241 81.022560 607.192505
[Rear_Leg04]
139 995.874512 -0.020504 -0.011921 -0.042406 -0.014548 107.948944 995.874573
140 995.874512 -0.020504 -0.011921 -0.042577 -0.014050 109.295151 995.874573
141 995.874512 -0.020504 -0.011921 -0.042736 -0.013548 110.641357 995.874573
[Rear_Foot]
139 3096.176270 -0.067472 -0.041425 -141.753784 52.824123 37.204517 3096.176270
140 3096.176270 -0.067472 -0.041425 -141.862778 52.847828 37.423954 3096.176270
141 3096.176270 -0.067472 -0.041425 -141.971664 52.871773 37.643444 3096.176270
[planeAlignerCenter]
139 0.350077 0.966311 -838.790894 0.000009 0.000003 -179.999985 838.791565
140 0.350077 0.966311 -838.790894 0.000009 0.000003 -179.999985 838.791565
141 0.350077 0.966311 -838.790894 0.000009 0.000003 -179.999985 838.791565
[Rear_Toe1_01]
139 0.653352 83.966492 -371.173737 -0.193694 26.269278 89.459465 380.553192
140 0.653352 83.966492 -371.173737 -0.187084 26.791193 89.482430 380.553192
141 0.653352 83.966492 -371.173737 -0.180209 27.313074 89.505569 380.553192
[Rear_Toe2_01]
139 178.200760 -294.826019 -362.060547 -4.016944 28.805067 -71.886787 499.765686
140 178.200760 -294.826019 -362.060547 -4.129921 28.938744 -72.011749 499.765686
141 178.200760 -294.826019 -362.060547 -4.243373 29.072199 -72.137146 499.765686
[Rear_Toe3_01]
139 -153.359680 -308.780914 -362.060852 3.197702 28.538908 -109.469040 499.952881
140 -153.359680 -308.780914 -362.060852 3.271475 28.681263 -109.422752 499.952881
141 -153.359680 -308.780914 -362.060852 3.345479 28.823563 -109.376205 499.952881
[planeLockWeightCenter]
139 -0.000062 0.000238 0.000000 -0.011814 -0.004373 -0.000015 0.000246
140 -0.000062 0.000238 0.000000 -0.011814 -0.004373 -0.000015 0.000246
141 -0.000062 0.000238 0.000000 -0.011814 -0.004373 -0.000015 0.000246
[Rear_Toe1_02]
139 379.707825 0.194073 0.000477 -0.001436 -33.564911 0.002167 379.707855
140 379.707825 0.194073 0.000477 -0.001290 -33.563980 0.002123 379.707855
141 379.707825 0.194073 0.000477 -0.001145 -33.563053 0.002079 379.707855
[Rear_Toe1_03]
139 500.129700 0.165701 0.000119 0.011299 78.076218 0.011299 500.129761
140 500.129700 0.165701 0.000119 0.011053 77.810059 0.011053 500.129761
141 500.129700 0.165701 0.000119 0.010818 77.543892 0.010818 500.129761
[Rear_Toe2_02]
139 340.494507 0.000238 -0.000954 -0.002324 -87.918785 -0.002324 340.494507
140 340.494507 0.000238 -0.000954 -0.002324 -87.806702 -0.002324 340.494507
141 340.494507 0.000238 -0.000954 -0.002324 -87.694550 -0.002324 340.494507
[Rear_Toe2_03]
139 433.103577 0.000000 0.000238 -179.994247 73.437134 -179.997787 433.103546
140 433.103577 0.000000 0.000238 -179.994156 73.809853 -179.997681 433.103546
141 433.103577 0.000000 0.000238 -179.994095 74.073647 -179.997620 433.103546
[Rear_Toe3_02]
139 340.494141 -0.000358 -0.000477 0.001174 -88.199303 0.001174 340.494171
140 340.494141 -0.000358 -0.000477 0.001174 -88.072983 0.001174 340.494171
141 340.494141 -0.000358 -0.000477 0.001174 -87.946434 0.001174 340.494171
[Rear_Toe3_03]
139 433.103577 0.001431 -0.000238 -179.997986 72.523499 -179.994446 433.103546
140 433.103577 0.001431 -0.000238 -179.997894 72.946411 -179.994354 433.103546
141 433.103577 0.001431 -0.000238 -179.997818 73.236847 -179.994293 433.103546
[Back_Bone]
139 1312.175781 -701.934692 0.000954 0.029893 0.010571 -94.791351 1488.125488
140 1312.175781 -701.934692 0.000954 0.024943 0.008371 -94.575012 1488.125488
141 1312.175781 -701.934692 0.000954 0.019985 0.006190 -94.358696 1488.125488
[Head]
139 1406.159424 809.709290 0.001431 0.136854 -1.470631 5.538394 1622.625488
140 1406.159424 809.709290 0.001431 0.138840 -1.470679 5.511961 1622.625488
141 1406.159424 809.709290 0.001431 0.134500 -1.468712 5.590883 1622.625488
[Motor_Bone]
139 1158.364380 -417.834747 0.000477 -0.152430 0.088535 -105.900368 1231.419434
140 1158.364380 -417.834747 0.000477 -0.153644 0.088800 -105.900055 1231.419434
141 1158.364380 -417.834747 0.000477 -0.154857 0.089064 -105.899712 1231.419434
[Ping_Mechanism]
139 1344.772217 -443.945007 16.022989 0.000103 -0.000053 82.120995 1416.247314
140 1344.858765 -444.758911 14.633738 0.000103 -0.000053 82.120995 1416.569702
141 1344.945313 -445.572815 13.244486 0.000103 -0.000053 82.120995 1416.894043
[BN_LookIK]
139 193.241119 1380.371704 -0.002861 0.000000 89.965736 -31.038179 1393.832153
140 193.241119 1380.371704 -0.002861 0.000000 89.965736 -31.038179 1393.832153
141 193.241119 1380.371704 -0.002861 0.000000 89.965736 -31.038179 1393.832153
[bottomMouth]
139 -435.092926 615.759399 -0.000954 -0.000022 0.000016 73.527184 753.966492
140 -435.092926 615.759399 -0.000954 -0.000022 0.000016 73.527184 753.966492
141 -435.092926 615.759399 -0.000954 -0.000022 0.000016 73.527184 753.966492
[L_Mouth01]
139 554.440979 7.658243 838.222046 150.204178 23.759130 109.605339 1005.027161
140 554.440979 7.658243 838.222046 150.204178 23.759130 109.605339 1005.027161
141 554.440979 7.658243 838.222046 150.204178 23.759130 109.605339 1005.027161
[L_mouthFront]
139 551.629089 934.514771 339.150421 0.000081 2.804060 79.119301 1136.941284
140 551.629089 934.514771 339.150421 0.000081 2.804060 79.119301 1136.941284
141 551.629089 934.514771 339.150421 0.000081 2.804060 79.119301 1136.941284
[mouthGun]
139 55.332661 1627.420898 0.000000 0.000023 0.000009 -11.038128 1628.361328
140 55.332661 1627.420898 0.000000 0.000023 0.000009 -11.038128 1628.361328
141 55.332661 1627.420898 0.000000 0.000023 0.000009 -11.038128 1628.361328
[R_Mouth01]
139 554.442383 7.659197 -838.223938 29.795891 -23.759109 109.605331 1005.029541
140 554.442383 7.659197 -838.223938 29.795891 -23.759109 109.605331 1005.029541
141 554.442383 7.659197 -838.223938 29.795891 -23.759109 109.605331 1005.029541
[R_mouthFront]
139 551.629089 934.514282 -339.151367 0.000029 -2.803930 79.119133 1136.941162
140 551.629089 934.514282 -339.151367 0.000029 -2.803930 79.119133 1136.941162
141 551.629089 934.514282 -339.151367 0.000029 -2.803930 79.119133 1136.941162
[TopMouth]
139 461.269867 -56.106091 -0.008583 -0.000059 -0.000268 92.025169 464.669525
140 461.269867 -56.106091 -0.008583 -0.000059 -0.000268 92.025169 464.669525
141 461.269867 -56.106091 -0.008583 -0.000059 -0.000268 92.025169 464.669525
[weapon_bone]
139 -987.239868 1448.372803 0.001431 0.000000 89.965736 -31.038221 1752.833740
140 -987.239868 1448.372803 0.001431 0.000000 89.965736 -31.038221 1752.833740
141 -987.239868 1448.372803 0.001431 0.000000 89.965736 -31.038221 1752.833740
